<mxfile host="65bd71144e">
    <diagram id="-AGe_s0diFOMlo3Oylx-" name="Page-1">
        <mxGraphModel dx="990" dy="567" grid="0" gridSize="10" guides="1" tooltips="1" connect="1" arrows="1" fold="1" page="1" pageScale="1" pageWidth="1169" pageHeight="827" background="#4D4D4D" math="0" shadow="0">
            <root>
                <mxCell id="0"/>
                <mxCell id="1" parent="0"/>
                <mxCell id="3" value="Sofie" style="shape=umlActor;verticalLabelPosition=bottom;verticalAlign=top;html=1;outlineConnect=0;gradientColor=#660066;fillColor=#990099;strokeColor=#330033;fontSize=13;fontStyle=1" vertex="1" parent="1">
                    <mxGeometry x="120" y="10" width="40" height="60" as="geometry"/>
                </mxCell>
                <mxCell id="4" value="&lt;font style=&quot;font-size: 14px&quot;&gt;&lt;b&gt;UI&lt;/b&gt;&lt;/font&gt;" style="text;html=1;strokeColor=none;fillColor=none;align=center;verticalAlign=middle;whiteSpace=wrap;rounded=0;" vertex="1" parent="1">
                    <mxGeometry x="10" y="100" width="50" height="30" as="geometry"/>
                </mxCell>
                <mxCell id="5" value="CsHtml" style="text;html=1;strokeColor=none;fillColor=none;align=center;verticalAlign=middle;whiteSpace=wrap;rounded=0;fontStyle=1;fontSize=14;" vertex="1" parent="1">
                    <mxGeometry x="10" y="160" width="50" height="30" as="geometry"/>
                </mxCell>
                <mxCell id="7" value="CsHtml.cs" style="text;html=1;strokeColor=none;fillColor=none;align=center;verticalAlign=middle;whiteSpace=wrap;rounded=0;fontSize=13;fontStyle=1" vertex="1" parent="1">
                    <mxGeometry x="10" y="240" width="50" height="30" as="geometry"/>
                </mxCell>
                <mxCell id="8" value="Controller" style="text;html=1;strokeColor=none;fillColor=none;align=center;verticalAlign=middle;whiteSpace=wrap;rounded=0;fontSize=13;fontStyle=1" vertex="1" parent="1">
                    <mxGeometry x="10" y="320" width="50" height="30" as="geometry"/>
                </mxCell>
                <mxCell id="9" value="Service" style="text;html=1;strokeColor=none;fillColor=none;align=center;verticalAlign=middle;whiteSpace=wrap;rounded=0;fontSize=14;fontStyle=1" vertex="1" parent="1">
                    <mxGeometry x="10" y="400" width="50" height="30" as="geometry"/>
                </mxCell>
                <mxCell id="10" value="Azure" style="text;html=1;strokeColor=none;fillColor=none;align=center;verticalAlign=middle;whiteSpace=wrap;rounded=0;fontSize=14;fontStyle=1" vertex="1" parent="1">
                    <mxGeometry x="10" y="500" width="50" height="30" as="geometry"/>
                </mxCell>
                <mxCell id="13" value="Get" style="endArrow=classic;html=1;strokeWidth=3;strokeColor=#9933FF;entryX=0.163;entryY=0.007;entryDx=0;entryDy=0;entryPerimeter=0;fontColor=#F0F0F0;labelBackgroundColor=none;" edge="1" parent="1" target="15">
                    <mxGeometry x="-0.0683" y="11" width="50" height="50" relative="1" as="geometry">
                        <mxPoint x="139" y="90" as="sourcePoint"/>
                        <mxPoint x="140" y="150" as="targetPoint"/>
                        <mxPoint as="offset"/>
                    </mxGeometry>
                </mxCell>
                <mxCell id="15" value="OnGet()" style="rounded=0;whiteSpace=wrap;html=1;strokeColor=#330033;fillColor=#990099;gradientColor=#660066;align=center;" vertex="1" parent="1">
                    <mxGeometry x="80" y="240" width="360" height="30" as="geometry"/>
                </mxCell>
                <mxCell id="16" value="Get()" style="rounded=0;whiteSpace=wrap;html=1;strokeColor=#330033;fillColor=#990099;gradientColor=#660066;align=center;" vertex="1" parent="1">
                    <mxGeometry x="80" y="320" width="360" height="30" as="geometry"/>
                </mxCell>
                <mxCell id="17" value="Get()" style="rounded=0;whiteSpace=wrap;html=1;strokeColor=#330033;fillColor=#990099;gradientColor=#660066;align=center;" vertex="1" parent="1">
                    <mxGeometry x="80" y="400" width="360" height="30" as="geometry"/>
                </mxCell>
                <mxCell id="18" value="Blob Container" style="shape=cylinder;whiteSpace=wrap;html=1;boundedLbl=1;backgroundOutline=1;strokeColor=#330033;fillColor=#990099;gradientColor=#660066;" vertex="1" parent="1">
                    <mxGeometry x="80" y="480" width="360" height="70" as="geometry"/>
                </mxCell>
                <mxCell id="20" value="Foreach loop" style="html=1;dashed=0;whitespace=wrap;shape=mxgraph.dfd.loop;strokeColor=#330033;fillColor=#990099;gradientColor=#660066;" vertex="1" parent="1">
                    <mxGeometry x="260" y="160" width="180" height="30" as="geometry"/>
                </mxCell>
                <mxCell id="23" value="Pictures from&amp;nbsp;&lt;br&gt;Sofie's life" style="html=1;dashed=0;whitespace=wrap;shape=mxgraph.dfd.start;strokeColor=#330033;fillColor=#990099;gradientColor=#660066;" vertex="1" parent="1">
                    <mxGeometry x="300" y="80" width="100" height="50" as="geometry"/>
                </mxCell>
                <mxCell id="24" value="Http Request" style="endArrow=classic;html=1;strokeWidth=3;strokeColor=#9933FF;fontColor=#F0F0F0;labelBackgroundColor=none;exitX=0.167;exitY=1;exitDx=0;exitDy=0;exitPerimeter=0;" edge="1" parent="1" source="15">
                    <mxGeometry x="0.1962" y="40" width="50" height="50" relative="1" as="geometry">
                        <mxPoint x="210.32" y="140" as="sourcePoint"/>
                        <mxPoint x="140" y="320" as="targetPoint"/>
                        <mxPoint as="offset"/>
                    </mxGeometry>
                </mxCell>
                <mxCell id="25" value="Async request" style="endArrow=classic;html=1;strokeWidth=3;strokeColor=#9933FF;fontColor=#F0F0F0;labelBackgroundColor=none;exitX=0.168;exitY=1.06;exitDx=0;exitDy=0;exitPerimeter=0;" edge="1" parent="1" source="16">
                    <mxGeometry x="0.1962" y="40" width="50" height="50" relative="1" as="geometry">
                        <mxPoint x="150.12000000000006" y="280" as="sourcePoint"/>
                        <mxPoint x="140" y="400" as="targetPoint"/>
                        <mxPoint as="offset"/>
                    </mxGeometry>
                </mxCell>
                <mxCell id="26" value="Async request" style="endArrow=classic;html=1;strokeWidth=3;strokeColor=#9933FF;fontColor=#F0F0F0;labelBackgroundColor=none;exitX=0.167;exitY=1.051;exitDx=0;exitDy=0;exitPerimeter=0;entryX=0.168;entryY=0.07;entryDx=0;entryDy=0;entryPerimeter=0;" edge="1" parent="1" source="17" target="18">
                    <mxGeometry x="0.1962" y="40" width="50" height="50" relative="1" as="geometry">
                        <mxPoint x="150.48000000000002" y="361.80000000000007" as="sourcePoint"/>
                        <mxPoint x="150" y="410" as="targetPoint"/>
                        <mxPoint as="offset"/>
                    </mxGeometry>
                </mxCell>
                <mxCell id="27" value="AsyncPageable&amp;lt;BlobItem&amp;gt;" style="endArrow=classic;html=1;strokeWidth=3;strokeColor=#9933FF;fontColor=#F0F0F0;labelBackgroundColor=none;exitX=0.833;exitY=0.02;exitDx=0;exitDy=0;exitPerimeter=0;entryX=0.834;entryY=1.051;entryDx=0;entryDy=0;entryPerimeter=0;" edge="1" parent="1" source="18" target="17">
                    <mxGeometry x="-0.0805" y="-73" width="50" height="50" relative="1" as="geometry">
                        <mxPoint x="150.12000000000006" y="441.53" as="sourcePoint"/>
                        <mxPoint x="150.48000000000002" y="494.9" as="targetPoint"/>
                        <mxPoint as="offset"/>
                    </mxGeometry>
                </mxCell>
                <mxCell id="28" value="List&amp;lt;string&amp;gt;" style="endArrow=classic;html=1;strokeWidth=3;strokeColor=#9933FF;fontColor=#F0F0F0;labelBackgroundColor=none;exitX=0.833;exitY=-0.051;exitDx=0;exitDy=0;exitPerimeter=0;entryX=0.834;entryY=1.051;entryDx=0;entryDy=0;entryPerimeter=0;" edge="1" parent="1" source="17" target="16">
                    <mxGeometry x="-0.1857" y="-40" width="50" height="50" relative="1" as="geometry">
                        <mxPoint x="389.88" y="491.4" as="sourcePoint"/>
                        <mxPoint x="340" y="390" as="targetPoint"/>
                        <mxPoint as="offset"/>
                    </mxGeometry>
                </mxCell>
                <mxCell id="29" value="HttpResponseMessage" style="endArrow=classic;html=1;strokeWidth=3;strokeColor=#9933FF;fontColor=#F0F0F0;labelBackgroundColor=none;entryX=0.832;entryY=1.024;entryDx=0;entryDy=0;entryPerimeter=0;" edge="1" parent="1" target="15">
                    <mxGeometry x="-0.0803" y="-63" width="50" height="50" relative="1" as="geometry">
                        <mxPoint x="379" y="320" as="sourcePoint"/>
                        <mxPoint x="350" y="300" as="targetPoint"/>
                        <mxPoint as="offset"/>
                    </mxGeometry>
                </mxCell>
                <mxCell id="30" value="List&amp;lt;string&amp;gt;" style="endArrow=classic;html=1;strokeWidth=3;strokeColor=#9933FF;fontColor=#F0F0F0;labelBackgroundColor=none;entryX=0.5;entryY=1;entryDx=0;entryDy=0;entryPerimeter=0;exitX=0.75;exitY=0;exitDx=0;exitDy=0;" edge="1" parent="1" source="15" target="20">
                    <mxGeometry x="-0.1524" y="-40" width="50" height="50" relative="1" as="geometry">
                        <mxPoint x="389" y="330" as="sourcePoint"/>
                        <mxPoint x="389.52" y="280.72" as="targetPoint"/>
                        <mxPoint as="offset"/>
                    </mxGeometry>
                </mxCell>
                <mxCell id="31" value="" style="endArrow=classic;html=1;strokeWidth=3;strokeColor=#9933FF;fontColor=#F0F0F0;labelBackgroundColor=none;entryX=0.5;entryY=0.5;entryDx=0;entryDy=25;entryPerimeter=0;exitX=0.5;exitY=0;exitDx=0;exitDy=0;exitPerimeter=0;" edge="1" parent="1" source="20" target="23">
                    <mxGeometry x="-0.1524" y="-40" width="50" height="50" relative="1" as="geometry">
                        <mxPoint x="360" y="250" as="sourcePoint"/>
                        <mxPoint x="360" y="200" as="targetPoint"/>
                        <mxPoint as="offset"/>
                    </mxGeometry>
                </mxCell>
            </root>
        </mxGraphModel>
    </diagram>
</mxfile>